<svg xmlns="http://www.w3.org/2000/svg" viewBox="0 0 490.7 490.7"><path d="M373.3 448.7H480l-23.5-129.5c-9.3-50.2-47.5-90.1-97.3-101.5 8.8-21.5 13.6-44.4 14.1-67.6 0-70.7-57.3-128-128-128s-128 57.3-128 128c.6 23.2 5.4 46.2 14.3 67.6-49.8 11.3-88.2 51.2-97.5 101.5L10.7 448.7h106.7V406H61.9l14.5-79.4c6.7-37.7 37.7-66.3 75.7-70 23.3 36.1 56.5 64 93.2 64s70-27.3 93.2-64c37.9 3.6 68.8 31.9 75.7 69.3l14.5 80h-55.5l.1 42.8zm-128-169.2c-34.1 0-85.3-67.6-85.3-129.5 1-46.7 38.6-84.3 85.3-85.3 46.7 1 84.3 38.6 85.3 85.3.1 61.9-51.1 129.5-85.3 129.5z" fill="#fff"/></svg>