<svg xmlns="http://www.w3.org/2000/svg" viewBox="0 0 426.7 426.7"><path d="M311.1 0c-40.2.3-77.2 21.6-97.7 56.1C192.9 21.6 155.8.3 115.6 0 50.7 1.2-1.1 54.7 0 119.7c0 115 213.3 307 213.3 307s213.3-192 213.3-307C427.8 54.7 376 1.2 311.1 0zm-97.7 377C136.6 302.5 36.3 183.9 36.3 119.7c-1.1-44.9 34.4-82.3 79.4-83.4 27.5.2 52.9 14.9 66.8 38.6l30.9 51 30.9-51c13.9-23.7 39.3-38.4 66.8-38.6 44.9 1.2 80.4 38.5 79.4 83.4-.1 64-100.4 182.8-177.1 257.3z"/><path d="M311.1 0c-40.2.3-77.2 21.6-97.7 56.1C192.9 21.6 155.8.3 115.6 0 50.7 1.2-1.1 54.7 0 119.7c0 115 213.3 307 213.3 307s213.3-192 213.3-307C427.8 54.7 376 1.2 311.1 0zm-97.7 377C136.6 302.5 36.3 183.9 36.3 119.7c-1.1-44.9 34.4-82.3 79.4-83.4 27.5.2 52.9 14.9 66.8 38.6l30.9 51 30.9-51c13.9-23.7 39.3-38.4 66.8-38.6 44.9 1.2 80.4 38.5 79.4 83.4-.1 64-100.4 182.8-177.1 257.3z"/></svg>